<svg width="32" height="24" viewBox="0 0 32 24" fill="none" xmlns="http://www.w3.org/2000/svg">
<g filter="url(#filter0_d)">
<path d="M27 7H5C4.44772 7 4 7.44772 4 8C4 8.55228 4.44772 9 5 9H27C27.5523 9 28 8.55228 28 8C28 7.44772 27.5523 7 27 7Z" fill="#111238"/>
<path d="M27 0H5C4.44772 0 4 0.447715 4 1C4 1.55228 4.44772 2 5 2H27C27.5523 2 28 1.55228 28 1C28 0.447715 27.5523 0 27 0Z" fill="#111238"/>
<path d="M27 14H5C4.44772 14 4 14.4477 4 15C4 15.5523 4.44772 16 5 16H27C27.5523 16 28 15.5523 28 15C28 14.4477 27.5523 14 27 14Z" fill="#111238"/>
</g>
<defs>
<filter id="filter0_d" x="0" y="0" width="32" height="24" filterUnits="userSpaceOnUse" color-interpolation-filters="sRGB">
<feFlood flood-opacity="0" result="BackgroundImageFix"/>
<feColorMatrix in="SourceAlpha" type="matrix" values="0 0 0 0 0 0 0 0 0 0 0 0 0 0 0 0 0 0 127 0"/>
<feOffset dy="4"/>
<feGaussianBlur stdDeviation="2"/>
<feColorMatrix type="matrix" values="0 0 0 0 0 0 0 0 0 0 0 0 0 0 0 0 0 0 0.25 0"/>
<feBlend mode="normal" in2="BackgroundImageFix" result="effect1_dropShadow"/>
<feBlend mode="normal" in="SourceGraphic" in2="effect1_dropShadow" result="shape"/>
</filter>
</defs>
</svg>
